# xmcd
#
# Track frame offsets:
#	150
#	20324
#	33875
#	46660
#	63794
#	78873
#	95235
#	110570
#	127794
#	146747
#	157224
#	174934
#	198971
#	217963
#	238777
#	256401
#	274781
#	290011
#
# Disc length: 4099 seconds
#
# Revision: 0
# Processed by: cddbd v1.5.2PL0 Copyright (c) Steve Scherf et al.
# Submitted via: audiograbber 1.83.01
#
DISCID=f8100112
DTITLE=KSENIJA ERKER - Ksenija Erker - Zlatna kolekcija 2
DYEAR=1900
DGENRE=
TTITLE0=Povedi me veceras
TTITLE1=Ne bih vise smjela
TTITLE2=Toplina tvoje ruke
TTITLE3=Proljece bez tebe
TTITLE4=Ljubavna rijeka
TTITLE5=Dugo u noc, u zimsku bijelu noc
TTITLE6=Kad bih mogla
TTITLE7=TV
TTITLE8=Otisli su nasi decki
TTITLE9=Plakat cu sutra
TTITLE10=Voli me
TTITLE11=Bele megline, megle meglene
TTITLE12=Zgublena zvezda
TTITLE13=Leta letiju
TTITLE14=Ogrni me nocas
TTITLE15=Per noi
TTITLE16=L'importante e'finire
TTITLE17=Parole, parole
EXTD=
EXTT0=
EXTT1=
EXTT2=
EXTT3=
EXTT4=
EXTT5=
EXTT6=
EXTT7=
EXTT8=
EXTT9=
EXTT10=
EXTT11=
EXTT12=
EXTT13=
EXTT14=
EXTT15=
EXTT16=
EXTT17=
PLAYORDER=
